File Name

Mr Nobody 2009 Extended BRRip H264.mp4

File Size
Format : MPEG-4
Format profile : Base Media
Codec ID : isom
File size : 2.80 GiB
Duration : 2h 35mn
Overall bit rate : 2 578 Kbps

Video
ID : 1
Format : AVC
Format/Info : Advanced Video Codec
Format profile : High@L4.1
Format settings, CABAC : Yes
Format settings, ReFrames : 3 frames
Codec ID : avc1
Codec ID/Info : Advanced Video Coding
Duration : 2h 35mn
Bit rate mode : Variable
Bit rate : 1 999 Kbps
Maximum bit rate : 14.4 Mbps
Width : 1 280 pixels
Height : 544 pixels
Display aspect ratio : 2.35:1
Frame rate mode : Constant
Frame rate : 24.000 fps
Resolution : 24 bits
Colorimetry : 4:2:0
Scan type : Progressive
Bits/(Pixel*Frame) : 0.120
Stream size : 2.17 GiB (77%)

Audio #1
ID : 2
Format : AAC
Format/Info : Advanced Audio Codec
Format version : Version 4
Format profile : LC
Format settings, SBR : No
Codec ID : 40
Duration : 2h 35mn
Bit rate mode : Variable
Bit rate : 128 Kbps
Maximum bit rate : 156 Kbps
Channel(s) : 6 channels
Channel positions : Front: L C R, Rear: L R, LFE
Sampling rate : 48.0 KHz
Resolution : 16 bits
Stream size : 142 MiB (5%)

Audio #2
ID : 3
Format : AAC
Format/Info : Advanced Audio Codec
Format version : Version 4
Format profile : LC
Format settings, SBR : No
Codec ID : 40
Duration : 2h 35mn
Bit rate mode : Variable
Bit rate : 448 Kbps
Maximum bit rate : 466 Kbps
Channel(s) : 6 channels
Channel positions : Front: L C R, Rear: L R, LFE
Sampling rate : 48.0 KHz
Resolution : 16 bits
Stream size : 498 MiB (17%)

English SRT : ----

Language : English


 
http://www.imdb.com/title/tt0485947/

Release Date: 6 November 2009 (Norway) 

Genre: Drama | Fantasy | Romance | Sci-Fi 

Plot: Nemo Nobody leads an ordinary existence at his wife's side, Elise, and their 3 children until the day when reality skids and he wakes up as an old man in the year 2092. At 120, Mr. Nobody is both the oldest man in the world and the last mortal of a new mankind where nobody dies anymore. But that doesn't seem to interest or bother him very much. The only questions that preoccupy him in the present is whether he lived the right life for himself, loved the woman whom he was supposed to love, and had the children whom he was meant to have... now his purpose is to find the right answer.

Cast: 
Jared Leto ... Nemo Nobody adult / Nemo Nobody aged 118
Diane Kruger ... Anna / Anna #2
Sarah Polley ... Elise
Linh Dan Pham ... Jean (as Linh-Dan Pham)
Rhys Ifans ... Nemo's Father
Natasha Little ... Nemo's Mother
Toby Regbo ... Nemo age 16
Juno Temple ... Anna age 15
Clare Stone ... Elise age 15
Thomas Byrne ... Nemo age 9
Audrey Giacomini ... Jean age 15
Laura Brumagne ... Anna age 9
Allan Corduner ... Dr. Feldheim
Daniel Mays ... Young journalist
Michael Riley ... Harry